<svg width="21" height="20" viewBox="0 0 21 20" fill="none" xmlns="http://www.w3.org/2000/svg">
<g id="fi-rr-plus-small">
<path id="Vector" d="M14.6667 9.16667H11.3333V5.83333C11.3333 5.61232 11.2455 5.40036 11.0893 5.24408C10.933 5.0878 10.721 5 10.5 5C10.279 5 10.067 5.0878 9.91074 5.24408C9.75446 5.40036 9.66667 5.61232 9.66667 5.83333V9.16667H6.33333C6.11232 9.16667 5.90036 9.25446 5.74408 9.41074C5.5878 9.56702 5.5 9.77899 5.5 10C5.5 10.221 5.5878 10.433 5.74408 10.5893C5.90036 10.7455 6.11232 10.8333 6.33333 10.8333H9.66667V14.1667C9.66667 14.3877 9.75446 14.5996 9.91074 14.7559C10.067 14.9122 10.279 15 10.5 15C10.721 15 10.933 14.9122 11.0893 14.7559C11.2455 14.5996 11.3333 14.3877 11.3333 14.1667V10.8333H14.6667C14.8877 10.8333 15.0996 10.7455 15.2559 10.5893C15.4122 10.433 15.5 10.221 15.5 10C15.5 9.77899 15.4122 9.56702 15.2559 9.41074C15.0996 9.25446 14.8877 9.16667 14.6667 9.16667Z" fill="white"/>
</g>
</svg>
